<svg width="38" height="35" fill="none" xmlns="http://www.w3.org/2000/svg"><g filter="url(#filter0_dd_1_103)"><path d="M18.612 26.75c-.416 0-.817-.15-1.13-.424a339.169 339.169 0 00-3.323-2.859l-.005-.004c-2.944-2.51-5.487-4.676-7.255-6.81C4.92 14.267 4 12.004 4 9.533c0-2.402.823-4.617 2.318-6.239C7.831 1.654 9.907.75 12.164.75c1.687 0 3.232.533 4.592 1.585a9.396 9.396 0 011.856 1.938 9.394 9.394 0 011.857-1.938C21.829 1.283 23.373.75 25.06.75c2.257 0 4.333.904 5.846 2.544 1.495 1.622 2.318 3.837 2.318 6.239 0 2.471-.92 4.734-2.898 7.12-1.77 2.134-4.311 4.3-7.255 6.81a337.095 337.095 0 00-3.33 2.863 1.715 1.715 0 01-1.129.424zM12.164 2.462c-1.773 0-3.402.708-4.587 1.993-1.203 1.304-1.865 3.108-1.865 5.078 0 2.078.772 3.937 2.504 6.027 1.675 2.02 4.165 4.143 7.048 6.6l.006.005c1.008.859 2.15 1.832 3.34 2.872a399.373 399.373 0 013.35-2.877c2.883-2.458 5.374-4.58 7.048-6.6 1.732-2.09 2.504-3.949 2.504-6.027 0-1.97-.662-3.774-1.865-5.078-1.185-1.285-2.814-1.993-4.587-1.993-1.299 0-2.491.413-3.544 1.227-.939.726-1.593 1.644-1.976 2.286-.197.33-.544.527-.928.527s-.731-.197-.928-.527c-.383-.642-1.037-1.56-1.976-2.286-1.053-.814-2.245-1.227-3.544-1.227z" fill="#000"/></g><defs><filter id="filter0_dd_1_103" x="0" y=".75" width="37.224" height="34" filterUnits="userSpaceOnUse" color-interpolation-filters="sRGB"><feFlood flood-opacity="0" result="BackgroundImageFix"/><feColorMatrix in="SourceAlpha" values="0 0 0 0 0 0 0 0 0 0 0 0 0 0 0 0 0 0 127 0" result="hardAlpha"/><feOffset dy="4"/><feGaussianBlur stdDeviation="2"/><feComposite in2="hardAlpha" operator="out"/><feColorMatrix values="0 0 0 0 0 0 0 0 0 0 0 0 0 0 0 0 0 0 0.25 0"/><feBlend in2="BackgroundImageFix" result="effect1_dropShadow_1_103"/><feColorMatrix in="SourceAlpha" values="0 0 0 0 0 0 0 0 0 0 0 0 0 0 0 0 0 0 127 0" result="hardAlpha"/><feOffset dy="4"/><feGaussianBlur stdDeviation="2"/><feComposite in2="hardAlpha" operator="out"/><feColorMatrix values="0 0 0 0 0 0 0 0 0 0 0 0 0 0 0 0 0 0 0.25 0"/><feBlend in2="effect1_dropShadow_1_103" result="effect2_dropShadow_1_103"/><feBlend in="SourceGraphic" in2="effect2_dropShadow_1_103" result="shape"/></filter></defs></svg>