<svg width="36" height="44" fill="none" xmlns="http://www.w3.org/2000/svg"><path d="M2.523 34.499c.561-.688 1.29-1.032 2.188-1.032 1.563 0 2.351.882 2.365 2.645V41H5.812v-4.895c-.005-.533-.128-.927-.37-1.182-.237-.255-.608-.383-1.114-.383-.41 0-.77.11-1.08.328a2.24 2.24 0 00-.725.861V41H1.26V30.5h1.264v3.999zm6.112 2.734c0-.724.141-1.376.424-1.955.287-.578.683-1.025 1.189-1.34.51-.314 1.091-.471 1.743-.471 1.007 0 1.82.348 2.44 1.046.625.697.937 1.624.937 2.782v.089c0 .72-.139 1.367-.417 1.941a3.115 3.115 0 01-1.182 1.333c-.51.32-1.099.479-1.764.479-1.003 0-1.816-.349-2.44-1.046-.62-.697-.93-1.62-.93-2.769v-.089zm1.271.15c0 .821.19 1.48.568 1.976.382.497.893.745 1.53.745.644 0 1.154-.25 1.532-.752.378-.505.568-1.212.568-2.119 0-.81-.194-1.467-.581-1.968a1.827 1.827 0 00-1.532-.76c-.624 0-1.128.25-1.51.746-.383.497-.575 1.208-.575 2.133zm8.238-3.78l.034.82c.542-.637 1.273-.956 2.194-.956 1.035 0 1.739.396 2.112 1.19.246-.356.565-.643.957-.862.397-.219.864-.328 1.402-.328 1.622 0 2.447.859 2.474 2.577V41h-1.264v-4.88c0-.53-.121-.924-.363-1.183-.241-.265-.647-.397-1.216-.397-.47 0-.86.141-1.17.424-.31.278-.49.654-.54 1.128V41h-1.27v-4.847c0-1.075-.527-1.613-1.58-1.613-.83 0-1.397.353-1.702 1.06V41h-1.265v-7.397h1.197zM32.3 41.137c-1.003 0-1.819-.328-2.448-.985-.628-.66-.943-1.542-.943-2.645v-.233c0-.733.14-1.387.417-1.962a3.284 3.284 0 011.176-1.353 2.958 2.958 0 011.64-.492c.962 0 1.71.316 2.243.95.533.633.8 1.54.8 2.72v.527h-5.011c.018.73.23 1.32.636 1.77.41.447.93.67 1.558.67.447 0 .825-.09 1.135-.273.31-.182.581-.424.813-.725l.773.602c-.62.953-1.55 1.429-2.79 1.429zm-.157-6.631c-.51 0-.94.187-1.286.56-.346.37-.56.89-.642 1.559h3.705v-.096c-.037-.642-.21-1.139-.52-1.49-.31-.355-.729-.533-1.257-.533zM27.108 12.33L17.052 2.28a.78.78 0 00-1.104 0L5.892 12.33a1.564 1.564 0 001.104 2.668h1.06v7.17a.78.78 0 00.78.781h6.101V17.48h2.735v5.47h6.492a.78.78 0 00.78-.782v-7.17h1.06a1.564 1.564 0 001.104-2.668z" fill="#FFBD2C"/></svg>