<svg width="56" height="46" fill="none" xmlns="http://www.w3.org/2000/svg"><path d="M35.563 8.836H31.71v-.453a5.212 5.212 0 00-10.422 0v.453h-3.852a.905.905 0 00-.906.906v15.18c0 .501.405.906.907.906h18.125a.905.905 0 00.906-.906V9.742a.905.905 0 00-.907-.906zm-5.891 0h-6.344v-.453A3.17 3.17 0 0126.5 5.21a3.17 3.17 0 013.172 3.172v.453zM7.602 39.384c0 1.125-.258 2.032-.773 2.72-.515.689-1.212 1.033-2.092 1.033-.897 0-1.604-.285-2.119-.855v3.562H1.354v-10.24h1.155l.061.82c.515-.638 1.23-.957 2.147-.957.888 0 1.59.335 2.105 1.005.52.67.78 1.602.78 2.796v.116zm-1.265-.144c0-.834-.178-1.492-.533-1.975-.356-.483-.843-.725-1.463-.725-.766 0-1.34.34-1.723 1.019v3.534c.378.674.957 1.011 1.736 1.011.607 0 1.087-.239 1.443-.717.36-.483.54-1.199.54-2.147zm6.453-2.502a3.789 3.789 0 00-.622-.048c-.83 0-1.392.354-1.688 1.06V43H9.214v-7.397h1.23l.02.855c.415-.66 1.003-.991 1.764-.991.247 0 .433.032.561.096v1.175zm.697 2.495c0-.724.142-1.376.424-1.955a3.226 3.226 0 011.19-1.34c.51-.314 1.091-.471 1.743-.471 1.007 0 1.82.348 2.44 1.046.625.697.937 1.624.937 2.782v.089c0 .72-.14 1.367-.417 1.941a3.114 3.114 0 01-1.183 1.333c-.51.32-1.098.479-1.764.479-1.002 0-1.816-.349-2.44-1.046-.62-.697-.93-1.62-.93-2.769v-.089zm1.272.15c0 .821.189 1.48.567 1.976.383.497.893.745 1.531.745.643 0 1.153-.25 1.532-.752.378-.505.567-1.212.567-2.119 0-.81-.194-1.467-.581-1.968a1.825 1.825 0 00-1.531-.76c-.625 0-1.128.25-1.511.746-.383.497-.574 1.208-.574 2.133zm6.74-.143c0-1.135.269-2.046.807-2.734.537-.693 1.241-1.04 2.112-1.04.866 0 1.552.297 2.058.89V32.5h1.264V43h-1.162l-.061-.793c-.506.62-1.21.93-2.113.93-.857 0-1.556-.351-2.098-1.053-.538-.702-.807-1.618-.807-2.748v-.096zm1.265.144c0 .838.173 1.495.52 1.968.346.475.824.712 1.435.712.802 0 1.387-.36 1.757-1.08v-3.398c-.379-.697-.96-1.046-1.744-1.046-.62 0-1.102.24-1.449.718-.346.478-.52 1.187-.52 2.126zm11.511 2.885c-.492.578-1.214.868-2.167.868-.788 0-1.39-.228-1.804-.684-.41-.46-.618-1.14-.622-2.037v-4.813h1.264v4.779c0 1.12.456 1.681 1.367 1.681.967 0 1.61-.36 1.928-1.08v-5.38h1.265V43h-1.203l-.028-.731zm6.125-.164c.452 0 .846-.137 1.183-.41.337-.274.524-.616.56-1.026h1.197a2.292 2.292 0 01-.438 1.21 2.874 2.874 0 01-1.08.916c-.446.228-.92.342-1.422.342-1.007 0-1.809-.335-2.406-1.005-.592-.675-.889-1.595-.889-2.762v-.212c0-.72.133-1.36.397-1.92a3.02 3.02 0 011.135-1.306c.496-.31 1.082-.465 1.757-.465.829 0 1.517.248 2.064.745.551.497.845 1.141.882 1.934h-1.196c-.037-.478-.22-.87-.547-1.175-.324-.31-.725-.465-1.203-.465-.643 0-1.142.232-1.497.697-.351.46-.527 1.128-.527 2.003v.24c0 .852.176 1.508.527 1.968.35.46.852.69 1.503.69zm6.078-8.292v1.79h1.38v.978h-1.38v4.587c0 .296.061.52.184.67.123.146.333.219.629.219.146 0 .346-.028.602-.082V43a3.669 3.669 0 01-.971.137c-.565 0-.991-.171-1.278-.513-.288-.342-.431-.827-.431-1.456v-4.587h-1.347v-.978h1.347v-1.79h1.264zm7.17 7.225c0-.342-.13-.606-.39-.793-.254-.191-.703-.355-1.346-.492-.638-.137-1.146-.3-1.524-.492-.374-.192-.652-.42-.834-.684a1.65 1.65 0 01-.267-.943c0-.606.255-1.119.766-1.538.515-.42 1.171-.63 1.969-.63.838 0 1.517.217 2.037.65.524.433.786.987.786 1.661h-1.272c0-.346-.148-.645-.444-.895-.292-.25-.66-.376-1.107-.376-.46 0-.82.1-1.08.3a.948.948 0 00-.39.787c0 .305.12.535.362.69.242.155.677.303 1.306.444.633.142 1.146.31 1.538.506.392.196.681.433.868.711.191.274.287.609.287 1.005 0 .661-.264 1.192-.793 1.593-.528.396-1.214.595-2.057.595-.593 0-1.117-.105-1.573-.315a2.593 2.593 0 01-1.073-.875 2.146 2.146 0 01-.383-1.223H50.3c.023.424.191.76.506 1.011.319.246.738.37 1.258.37.478 0 .86-.096 1.148-.288.292-.196.437-.455.437-.779z" fill="#fff"/></svg>