<svg width="47" height="52" fill="none" xmlns="http://www.w3.org/2000/svg"><g filter="url(#filter0_d_2_723)" fill="#fff"><path d="M22 1c-1.5 0-2.672.552-3.516 1.656-.843 1.104-1.265 2.516-1.265 4.235-.01 2.135.677 3.828 2.062 5.078.177.166.24.38.188.64l-.36.75c-.114.25-.284.446-.507.586-.224.14-.696.341-1.415.602l-1.976.64c-1.287.417-1.971.646-2.055.688-.875.365-1.448.745-1.719 1.14C11.146 17.673 11 19.334 11 22h22c0-2.667-.146-4.328-.438-4.984-.27-.396-.843-.776-1.718-1.141-.084-.042-.768-.27-2.055-.688l-1.977-.64c-.718-.26-1.19-.461-1.414-.602a1.328 1.328 0 01-.507-.586l-.36-.75c-.052-.26.01-.474.188-.64 1.385-1.25 2.073-2.943 2.062-5.078 0-1.72-.422-3.13-1.265-4.235C24.672 1.552 23.5 1 22 1zM10.688 37.384c0 1.125-.257 2.032-.772 2.72-.515.689-1.212 1.033-2.092 1.033-.898 0-1.604-.285-2.119-.855v3.562H4.44v-10.24h1.156l.061.82c.515-.638 1.23-.957 2.147-.957.888 0 1.59.335 2.105 1.005.52.67.78 1.602.78 2.796v.116zm-1.264-.144c0-.834-.178-1.492-.533-1.975-.356-.483-.843-.725-1.463-.725-.766 0-1.34.34-1.723 1.019v3.534c.378.674.957 1.011 1.736 1.011.607 0 1.087-.239 1.443-.717.36-.483.54-1.199.54-2.147zm6.453-2.502a3.79 3.79 0 00-.622-.048c-.83 0-1.392.354-1.689 1.06V41h-1.264v-7.397h1.23l.02.855c.415-.66 1.003-.991 1.764-.991.246 0 .433.032.561.096v1.175zm.697 2.495c0-.724.141-1.376.424-1.955a3.226 3.226 0 011.19-1.34c.51-.314 1.091-.471 1.743-.471 1.007 0 1.82.348 2.44 1.046.624.697.937 1.624.937 2.782v.089c0 .72-.14 1.367-.417 1.941a3.114 3.114 0 01-1.183 1.333c-.51.32-1.098.479-1.764.479-1.002 0-1.816-.349-2.44-1.046-.62-.697-.93-1.62-.93-2.769v-.089zm1.272.15c0 .821.189 1.48.567 1.976.383.497.893.745 1.531.745.643 0 1.153-.25 1.532-.752.378-.505.567-1.212.567-2.119 0-.81-.194-1.467-.581-1.968a1.825 1.825 0 00-1.531-.76c-.625 0-1.128.25-1.511.746-.383.497-.574 1.208-.574 2.133zM25.317 41v-6.419h-1.169v-.978h1.17v-.628c0-.825.234-1.468.703-1.928.474-.46 1.142-.69 2.003-.69.51 0 1.156.138 1.935.416l-.212 1.067c-.57-.228-1.112-.342-1.627-.342-.542 0-.934.123-1.176.37-.237.24-.355.605-.355 1.093v.642h1.51v.978h-1.51V41h-1.272zm5.27 0h-1.27v-7.397h1.27V41zm3.433 0h-1.265V30.5h1.264V41zm5.1.137c-1.003 0-1.82-.328-2.448-.985-.629-.66-.944-1.542-.944-2.645v-.233c0-.733.14-1.387.417-1.962a3.284 3.284 0 011.176-1.353 2.958 2.958 0 011.64-.492c.962 0 1.71.316 2.243.95.533.633.8 1.54.8 2.72v.527h-5.01c.017.73.23 1.32.635 1.77.41.447.93.67 1.559.67.446 0 .824-.09 1.134-.273a2.85 2.85 0 00.814-.725l.772.602c-.62.953-1.55 1.429-2.789 1.429zm-.158-6.631c-.51 0-.939.187-1.285.56-.347.37-.56.89-.643 1.559h3.705v-.096c-.036-.642-.21-1.139-.52-1.49-.31-.355-.728-.533-1.257-.533z"/></g><defs><filter id="filter0_d_2_723" x=".44" y="0" width="45.563" height="51.844" filterUnits="userSpaceOnUse" color-interpolation-filters="sRGB"><feFlood flood-opacity="0" result="BackgroundImageFix"/><feColorMatrix in="SourceAlpha" values="0 0 0 0 0 0 0 0 0 0 0 0 0 0 0 0 0 0 127 0" result="hardAlpha"/><feOffset dy="4"/><feGaussianBlur stdDeviation="2"/><feComposite in2="hardAlpha" operator="out"/><feColorMatrix values="0 0 0 0 0 0 0 0 0 0 0 0 0 0 0 0 0 0 0.25 0"/><feBlend in2="BackgroundImageFix" result="effect1_dropShadow_2_723"/><feBlend in="SourceGraphic" in2="effect1_dropShadow_2_723" result="shape"/></filter></defs></svg>