<svg width="32" height="34" fill="none" xmlns="http://www.w3.org/2000/svg"><path d="M31.433 33.153l-2.54-23.669a.775.775 0 00-.762-.677h-4.7v-1.44A7.373 7.373 0 0016.064 0a7.373 7.373 0 00-7.368 7.367v1.44H3.87a.775.775 0 00-.762.677l-2.54 23.67c-.043.21.042.423.169.592a.68.68 0 00.55.254h29.428a.683.683 0 00.55-.254c.127-.17.212-.381.17-.593zm-8.764-20.07a.67.67 0 01.677.678.669.669 0 01-.677.677.669.669 0 01-.678-.677.67.67 0 01.678-.678zM10.22 7.367a5.855 5.855 0 015.844-5.843 5.855 5.855 0 015.843 5.843v1.44H10.22v-1.44zm-.762 5.716a.67.67 0 01.678.678.669.669 0 01-.678.677.669.669 0 01-.677-.677c0-.381.296-.678.677-.678zm-7.282 19.35l2.37-22.144h4.15v1.397a2.152 2.152 0 00-1.44 2.033c0 1.185.974 2.159 2.16 2.159a2.17 2.17 0 002.16-2.16c0-.931-.593-1.735-1.44-2.032V10.29h11.686v1.397a2.152 2.152 0 00-1.44 2.033c0 1.185.974 2.159 2.16 2.159a2.17 2.17 0 002.16-2.16c0-.931-.594-1.735-1.44-2.032V10.29h4.318l2.371 22.144H2.176z" fill="#fff"/></svg>