<svg width="49" height="43" fill="none" xmlns="http://www.w3.org/2000/svg"><g clip-path="url(#clip0_2_715)"><path fill-rule="evenodd" clip-rule="evenodd" d="M30.305 1.5h-13.59v1.546h-4.726v7.255c0 2.803 3.19 5.11 6.32 5.35 1.029 1.08 2.836 1.864 4.445 2.199v1.896c-1.538.463-4.287 1.553-4.444 2.739h10.559c-.16-1.186-3.187-2.277-4.73-2.739V17.85c1.616-.335 3.505-1.119 4.534-2.199 3.13-.24 6.179-2.547 6.179-5.35V3.045h-4.546V1.5zM13.44 4.42h3.165v6.25c0 1.232.324 2.405.894 3.462-2.367-.74-4.059-2.645-4.059-4.874V4.421zm12.395 7.622l-2.362-1.277-2.364 1.277.45-2.7-1.911-1.911 2.641-.394 1.184-2.455 1.18 2.455 2.642.394-1.912 1.911.451 2.7zm3.51 2.289a7.807 7.807 0 00.902-3.617V4.461h3.172V9.24c0 2.33-1.7 4.319-4.075 5.091z" fill="#fff"/></g><path d="M7.506 38.257l1.422-5.654h1.264L8.04 40H7.014l-1.798-5.605L3.466 40H2.44L.294 32.603h1.258l1.456 5.538 1.722-5.538h1.02l1.757 5.654zM12.858 40h-1.264v-7.397h1.264V40zm-1.367-9.358c0-.206.062-.379.185-.52.127-.141.314-.212.56-.212.246 0 .433.07.56.212a.747.747 0 01.192.52.722.722 0 01-.191.512c-.128.137-.315.205-.56.205-.247 0-.434-.068-.561-.205a.738.738 0 01-.185-.512zm4.594 1.961l.041.93c.565-.71 1.303-1.066 2.215-1.066 1.563 0 2.351.882 2.365 2.645V40h-1.265v-4.895c-.004-.533-.127-.927-.369-1.182-.237-.255-.608-.383-1.114-.383-.41 0-.77.11-1.08.328a2.23 2.23 0 00-.725.861V40H14.89v-7.397h1.196zm7.725 0l.04.93c.566-.71 1.304-1.066 2.215-1.066 1.564 0 2.352.882 2.366 2.645V40h-1.265v-4.895c-.005-.533-.128-.927-.37-1.182-.236-.255-.607-.383-1.113-.383-.41 0-.77.11-1.08.328a2.23 2.23 0 00-.725.861V40h-1.265v-7.397h1.197zm9.597 7.534c-1.002 0-1.818-.328-2.447-.985-.629-.66-.943-1.542-.943-2.645v-.233c0-.733.139-1.387.417-1.962a3.283 3.283 0 011.175-1.353 2.958 2.958 0 011.641-.492c.962 0 1.709.316 2.242.95.533.633.8 1.54.8 2.72v.527h-5.01c.017.73.23 1.32.635 1.77.41.447.93.67 1.559.67.446 0 .825-.09 1.134-.273.31-.182.581-.424.814-.725l.772.602c-.62.953-1.55 1.429-2.789 1.429zm-.157-6.631c-.51 0-.939.187-1.285.56-.346.37-.56.89-.643 1.559h3.705v-.096c-.036-.642-.21-1.139-.52-1.49-.31-.355-.728-.533-1.257-.533zm8.087.232a3.79 3.79 0 00-.622-.048c-.83 0-1.392.354-1.689 1.06V40h-1.264v-7.397h1.23l.02.855c.415-.66 1.003-.991 1.764-.991.246 0 .433.032.56.096v1.175zm5.475 4.3c0-.342-.13-.606-.39-.793-.254-.191-.703-.355-1.346-.492-.638-.137-1.146-.3-1.524-.492-.374-.192-.652-.42-.834-.684a1.65 1.65 0 01-.267-.943c0-.606.255-1.119.766-1.538.515-.42 1.171-.63 1.968-.63.84 0 1.518.217 2.038.65.524.433.786.987.786 1.661h-1.272c0-.346-.148-.645-.444-.895-.292-.25-.66-.376-1.108-.376-.46 0-.82.1-1.08.3a.948.948 0 00-.39.787c0 .305.122.535.363.69.242.155.677.303 1.306.444.633.142 1.146.31 1.538.506.392.196.681.433.868.711.191.274.287.609.287 1.005 0 .661-.264 1.192-.793 1.593-.529.396-1.214.595-2.057.595-.593 0-1.117-.105-1.573-.315a2.592 2.592 0 01-1.073-.875 2.146 2.146 0 01-.383-1.223h1.265c.023.424.191.76.506 1.011.319.246.738.37 1.258.37.478 0 .86-.096 1.148-.288.292-.196.438-.455.438-.779z" fill="#fff"/><defs><clipPath id="clip0_2_715"><path fill="#fff" transform="translate(12)" d="M0 0h26v24H0z"/></clipPath></defs></svg>