<svg width="36" height="44" viewBox="0 0 36 44" fill="none" xmlns="http://www.w3.org/2000/svg">
<path d="M2.52344 34.499C3.08398 33.8109 3.81315 33.4668 4.71094 33.4668C6.27409 33.4668 7.0625 34.3486 7.07617 36.1123V41H5.81152V36.1055C5.80697 35.5723 5.68392 35.1781 5.44238 34.9229C5.2054 34.6676 4.83398 34.54 4.32812 34.54C3.91797 34.54 3.55794 34.6494 3.24805 34.8682C2.93815 35.0869 2.69661 35.374 2.52344 35.7295V41H1.25879V30.5H2.52344V34.499ZM8.63477 37.2334C8.63477 36.5088 8.77604 35.8571 9.05859 35.2783C9.3457 34.6995 9.74219 34.2529 10.248 33.9385C10.7585 33.624 11.3395 33.4668 11.9912 33.4668C12.9984 33.4668 13.8118 33.8154 14.4316 34.5127C15.056 35.21 15.3682 36.1374 15.3682 37.2949V37.3838C15.3682 38.1038 15.2292 38.751 14.9512 39.3252C14.6777 39.8949 14.2835 40.3392 13.7686 40.6582C13.2581 40.9772 12.6702 41.1367 12.0049 41.1367C11.0023 41.1367 10.1888 40.7881 9.56445 40.0908C8.94466 39.3936 8.63477 38.4707 8.63477 37.3223V37.2334ZM9.90625 37.3838C9.90625 38.2041 10.0954 38.8626 10.4736 39.3594C10.8564 39.8561 11.3669 40.1045 12.0049 40.1045C12.6475 40.1045 13.1579 39.8538 13.5361 39.3525C13.9144 38.8467 14.1035 38.1403 14.1035 37.2334C14.1035 36.4222 13.9098 35.766 13.5225 35.2646C13.1396 34.7588 12.6292 34.5059 11.9912 34.5059C11.3669 34.5059 10.8633 34.7542 10.4805 35.251C10.0977 35.7477 9.90625 36.4587 9.90625 37.3838ZM18.1436 33.6035L18.1777 34.4238C18.7201 33.7858 19.4515 33.4668 20.3721 33.4668C21.4066 33.4668 22.1107 33.8633 22.4844 34.6562C22.7305 34.3008 23.0495 34.0137 23.4414 33.7949C23.8379 33.5762 24.305 33.4668 24.8428 33.4668C26.4652 33.4668 27.29 34.3258 27.3174 36.0439V41H26.0527V36.1191C26.0527 35.5905 25.932 35.1963 25.6904 34.9365C25.4489 34.6722 25.0433 34.54 24.4736 34.54C24.0042 34.54 23.6146 34.6813 23.3047 34.9639C22.9948 35.2419 22.8148 35.6178 22.7646 36.0918V41H21.4932V36.1533C21.4932 35.0778 20.9668 34.54 19.9141 34.54C19.0846 34.54 18.5173 34.8932 18.2119 35.5996V41H16.9473V33.6035H18.1436ZM32.3008 41.1367C31.2982 41.1367 30.4824 40.8086 29.8535 40.1523C29.2246 39.4915 28.9102 38.6097 28.9102 37.5068V37.2744C28.9102 36.5407 29.0492 35.8867 29.3271 35.3125C29.6097 34.7337 30.0016 34.2826 30.5029 33.959C31.0088 33.6309 31.5557 33.4668 32.1436 33.4668C33.1051 33.4668 33.8525 33.7835 34.3857 34.417C34.9189 35.0505 35.1855 35.9574 35.1855 37.1377V37.6641H30.1748C30.193 38.3932 30.4049 38.9834 30.8105 39.4346C31.2207 39.8812 31.7402 40.1045 32.3691 40.1045C32.8158 40.1045 33.194 40.0133 33.5039 39.8311C33.8138 39.6488 34.085 39.4072 34.3174 39.1064L35.0898 39.708C34.4701 40.6605 33.5404 41.1367 32.3008 41.1367ZM32.1436 34.5059C31.6331 34.5059 31.2048 34.6927 30.8584 35.0664C30.512 35.4355 30.2979 35.9551 30.2158 36.625H33.9209V36.5293C33.8844 35.8867 33.7113 35.39 33.4014 35.0391C33.0915 34.6836 32.6722 34.5059 32.1436 34.5059Z" fill="#FFBD2C"/>
<path d="M27.1079 12.3291L17.0518 2.28025C16.9794 2.2077 16.8933 2.15015 16.7987 2.11088C16.704 2.07161 16.6025 2.05139 16.5 2.05139C16.3975 2.05139 16.296 2.07161 16.2013 2.11088C16.1067 2.15015 16.0206 2.2077 15.9482 2.28025L5.89209 12.3291C5.59912 12.622 5.43311 13.02 5.43311 13.435C5.43311 14.2969 6.13379 14.9975 6.99561 14.9975H8.05518V22.1679C8.05518 22.6001 8.4043 22.9492 8.83643 22.9492H14.9375V17.4804H17.6719V22.9492H24.1636C24.5957 22.9492 24.9448 22.6001 24.9448 22.1679V14.9975H26.0044C26.4194 14.9975 26.8174 14.834 27.1104 14.5386C27.7183 13.9282 27.7183 12.9394 27.1079 12.3291Z" fill="#FFBD2C"/>
</svg>
