<svg width="56" height="46" viewBox="0 0 56 46" fill="none" xmlns="http://www.w3.org/2000/svg">
<path d="M35.5625 8.83594H31.7109V8.38281C31.7109 5.50547 29.3773 3.17188 26.5 3.17188C23.6227 3.17188 21.2891 5.50547 21.2891 8.38281V8.83594H17.4375C16.9362 8.83594 16.5312 9.24092 16.5312 9.74219V24.9219C16.5312 25.4231 16.9362 25.8281 17.4375 25.8281H35.5625C36.0638 25.8281 36.4688 25.4231 36.4688 24.9219V9.74219C36.4688 9.24092 36.0638 8.83594 35.5625 8.83594ZM29.6719 8.83594H23.3281V8.38281C23.3281 6.62979 24.747 5.21094 26.5 5.21094C28.253 5.21094 29.6719 6.62979 29.6719 8.38281V8.83594Z" fill="white"/>
<path d="M7.60156 39.3838C7.60156 40.5094 7.34408 41.4163 6.8291 42.1045C6.31413 42.7926 5.61686 43.1367 4.7373 43.1367C3.83952 43.1367 3.13314 42.8519 2.61816 42.2822V45.8438H1.35352V35.6035H2.50879L2.57031 36.4238C3.08529 35.7858 3.80078 35.4668 4.7168 35.4668C5.60547 35.4668 6.30729 35.8018 6.82227 36.4717C7.3418 37.1416 7.60156 38.0736 7.60156 39.2676V39.3838ZM6.33691 39.2402C6.33691 38.4062 6.15918 37.7477 5.80371 37.2646C5.44824 36.7816 4.96061 36.54 4.34082 36.54C3.5752 36.54 3.00098 36.8796 2.61816 37.5586V41.0928C2.99642 41.7673 3.5752 42.1045 4.35449 42.1045C4.96061 42.1045 5.44141 41.8652 5.79688 41.3867C6.1569 40.9036 6.33691 40.1882 6.33691 39.2402ZM12.79 36.7383C12.5986 36.7064 12.3913 36.6904 12.168 36.6904C11.3385 36.6904 10.7757 37.0436 10.4795 37.75V43H9.21484V35.6035H10.4453L10.4658 36.458C10.8805 35.7972 11.4684 35.4668 12.2295 35.4668C12.4756 35.4668 12.6624 35.4987 12.79 35.5625V36.7383ZM13.4873 39.2334C13.4873 38.5088 13.6286 37.8571 13.9111 37.2783C14.1982 36.6995 14.5947 36.2529 15.1006 35.9385C15.611 35.624 16.1921 35.4668 16.8438 35.4668C17.8509 35.4668 18.6644 35.8154 19.2842 36.5127C19.9085 37.21 20.2207 38.1374 20.2207 39.2949V39.3838C20.2207 40.1038 20.0817 40.751 19.8037 41.3252C19.5303 41.8949 19.1361 42.3392 18.6211 42.6582C18.1107 42.9772 17.5228 43.1367 16.8574 43.1367C15.8548 43.1367 15.0413 42.7881 14.417 42.0908C13.7972 41.3936 13.4873 40.4707 13.4873 39.3223V39.2334ZM14.7588 39.3838C14.7588 40.2041 14.9479 40.8626 15.3262 41.3594C15.709 41.8561 16.2194 42.1045 16.8574 42.1045C17.5 42.1045 18.0104 41.8538 18.3887 41.3525C18.7669 40.8467 18.9561 40.1403 18.9561 39.2334C18.9561 38.4222 18.7624 37.766 18.375 37.2646C17.9922 36.7588 17.4818 36.5059 16.8438 36.5059C16.2194 36.5059 15.7158 36.7542 15.333 37.251C14.9502 37.7477 14.7588 38.4587 14.7588 39.3838ZM21.499 39.2402C21.499 38.1055 21.7679 37.194 22.3057 36.5059C22.8434 35.8132 23.5475 35.4668 24.418 35.4668C25.2839 35.4668 25.9697 35.763 26.4756 36.3555V32.5H27.7402V43H26.5781L26.5166 42.207C26.0107 42.8268 25.3066 43.1367 24.4043 43.1367C23.5475 43.1367 22.848 42.7858 22.3057 42.084C21.7679 41.3822 21.499 40.4661 21.499 39.3359V39.2402ZM22.7637 39.3838C22.7637 40.2223 22.9368 40.8786 23.2832 41.3525C23.6296 41.8265 24.1081 42.0635 24.7188 42.0635C25.5208 42.0635 26.1064 41.7035 26.4756 40.9834V37.5859C26.0973 36.8887 25.5163 36.54 24.7324 36.54C24.1126 36.54 23.6296 36.7793 23.2832 37.2578C22.9368 37.7363 22.7637 38.445 22.7637 39.3838ZM34.2754 42.2686C33.7832 42.8473 33.0609 43.1367 32.1084 43.1367C31.32 43.1367 30.7184 42.9089 30.3037 42.4531C29.8936 41.9928 29.6862 41.3138 29.6816 40.416V35.6035H30.9463V40.3818C30.9463 41.5029 31.402 42.0635 32.3135 42.0635C33.2796 42.0635 33.9222 41.7035 34.2412 40.9834V35.6035H35.5059V43H34.3027L34.2754 42.2686ZM40.4004 42.1045C40.8516 42.1045 41.2458 41.9678 41.583 41.6943C41.9202 41.4209 42.1071 41.0791 42.1436 40.6689H43.3398C43.3171 41.0928 43.1712 41.4961 42.9023 41.8789C42.6335 42.2617 42.2734 42.5671 41.8223 42.7949C41.3757 43.0228 40.9017 43.1367 40.4004 43.1367C39.3932 43.1367 38.5911 42.8018 37.9941 42.1318C37.4017 41.4574 37.1055 40.5368 37.1055 39.3701V39.1582C37.1055 38.4382 37.2376 37.7979 37.502 37.2373C37.7663 36.6768 38.1445 36.2415 38.6367 35.9316C39.1335 35.6217 39.7191 35.4668 40.3936 35.4668C41.223 35.4668 41.9111 35.7152 42.458 36.2119C43.0094 36.7087 43.3034 37.3535 43.3398 38.1465H42.1436C42.1071 37.668 41.9248 37.276 41.5967 36.9707C41.2731 36.6608 40.8721 36.5059 40.3936 36.5059C39.751 36.5059 39.252 36.7383 38.8965 37.2031C38.5456 37.6634 38.3701 38.3311 38.3701 39.2061V39.4453C38.3701 40.2975 38.5456 40.9538 38.8965 41.4141C39.2474 41.8743 39.7487 42.1045 40.4004 42.1045ZM46.4775 33.8125V35.6035H47.8584V36.5811H46.4775V41.168C46.4775 41.4642 46.5391 41.6875 46.6621 41.8379C46.7852 41.9837 46.9948 42.0566 47.291 42.0566C47.4368 42.0566 47.6374 42.0293 47.8926 41.9746V43C47.5599 43.0911 47.2363 43.1367 46.9219 43.1367C46.3568 43.1367 45.9307 42.9658 45.6436 42.624C45.3564 42.2822 45.2129 41.7969 45.2129 41.168V36.5811H43.8662V35.6035H45.2129V33.8125H46.4775ZM53.6484 41.0381C53.6484 40.6963 53.5186 40.432 53.2588 40.2451C53.0036 40.0537 52.5547 39.8896 51.9121 39.7529C51.2741 39.6162 50.766 39.4521 50.3877 39.2607C50.014 39.0693 49.736 38.8415 49.5537 38.5771C49.376 38.3128 49.2871 37.9984 49.2871 37.6338C49.2871 37.0277 49.5423 36.515 50.0527 36.0957C50.5677 35.6764 51.224 35.4668 52.0215 35.4668C52.86 35.4668 53.5391 35.6833 54.0586 36.1162C54.5827 36.5492 54.8447 37.1029 54.8447 37.7773H53.5732C53.5732 37.431 53.4251 37.1325 53.1289 36.8818C52.8372 36.6312 52.4681 36.5059 52.0215 36.5059C51.5612 36.5059 51.2012 36.6061 50.9414 36.8066C50.6816 37.0072 50.5518 37.2692 50.5518 37.5928C50.5518 37.8981 50.6725 38.1283 50.9141 38.2832C51.1556 38.4382 51.5908 38.5863 52.2197 38.7275C52.8532 38.8688 53.3659 39.0374 53.7578 39.2334C54.1497 39.4294 54.4391 39.6663 54.626 39.9443C54.8174 40.2178 54.9131 40.5527 54.9131 40.9492C54.9131 41.61 54.6488 42.141 54.1201 42.542C53.5915 42.9385 52.9056 43.1367 52.0625 43.1367C51.4701 43.1367 50.946 43.0319 50.4902 42.8223C50.0345 42.6126 49.6768 42.321 49.417 41.9473C49.1618 41.569 49.0342 41.1611 49.0342 40.7236H50.2988C50.3216 41.1475 50.4902 41.4847 50.8047 41.7354C51.1237 41.9814 51.543 42.1045 52.0625 42.1045C52.541 42.1045 52.9238 42.0088 53.2109 41.8174C53.5026 41.6214 53.6484 41.3617 53.6484 41.0381Z" fill="white"/>
</svg>
