<svg width="47" height="52" viewBox="0 0 47 52" fill="none" xmlns="http://www.w3.org/2000/svg">
<g filter="url(#filter0_d_2_723)">
<path d="M22 1C20.5 1 19.3281 1.55208 18.4844 2.65625C17.6406 3.76042 17.2188 5.17188 17.2188 6.89062C17.2083 9.02604 17.8958 10.7188 19.2812 11.9688C19.4583 12.1354 19.5208 12.349 19.4688 12.6094L19.1094 13.3594C18.9948 13.6094 18.8255 13.8047 18.6016 13.9453C18.3776 14.0859 17.9062 14.2865 17.1875 14.5469C17.1562 14.5573 16.4974 14.7708 15.2109 15.1875C13.9245 15.6042 13.2396 15.8333 13.1562 15.875C12.2812 16.2396 11.7083 16.6198 11.4375 17.0156C11.1458 17.6719 11 19.3333 11 22H33C33 19.3333 32.8542 17.6719 32.5625 17.0156C32.2917 16.6198 31.7188 16.2396 30.8438 15.875C30.7604 15.8333 30.0755 15.6042 28.7891 15.1875C27.5026 14.7708 26.8438 14.5573 26.8125 14.5469C26.0938 14.2865 25.6224 14.0859 25.3984 13.9453C25.1745 13.8047 25.0052 13.6094 24.8906 13.3594L24.5312 12.6094C24.4792 12.349 24.5417 12.1354 24.7188 11.9688C26.1042 10.7188 26.7917 9.02604 26.7812 6.89062C26.7812 5.17188 26.3594 3.76042 25.5156 2.65625C24.6719 1.55208 23.5 1 22 1Z" fill="white"/>
<path d="M10.6885 37.3838C10.6885 38.5094 10.431 39.4163 9.91602 40.1045C9.40104 40.7926 8.70378 41.1367 7.82422 41.1367C6.92643 41.1367 6.22005 40.8519 5.70508 40.2822V43.8438H4.44043V33.6035H5.5957L5.65723 34.4238C6.1722 33.7858 6.8877 33.4668 7.80371 33.4668C8.69238 33.4668 9.39421 33.8018 9.90918 34.4717C10.4287 35.1416 10.6885 36.0736 10.6885 37.2676V37.3838ZM9.42383 37.2402C9.42383 36.4062 9.24609 35.7477 8.89062 35.2646C8.53516 34.7816 8.04753 34.54 7.42773 34.54C6.66211 34.54 6.08789 34.8796 5.70508 35.5586V39.0928C6.08333 39.7673 6.66211 40.1045 7.44141 40.1045C8.04753 40.1045 8.52832 39.8652 8.88379 39.3867C9.24382 38.9036 9.42383 38.1882 9.42383 37.2402ZM15.877 34.7383C15.6855 34.7064 15.4782 34.6904 15.2549 34.6904C14.4255 34.6904 13.8626 35.0436 13.5664 35.75V41H12.3018V33.6035H13.5322L13.5527 34.458C13.9674 33.7972 14.5553 33.4668 15.3164 33.4668C15.5625 33.4668 15.7493 33.4987 15.877 33.5625V34.7383ZM16.5742 37.2334C16.5742 36.5088 16.7155 35.8571 16.998 35.2783C17.2852 34.6995 17.6816 34.2529 18.1875 33.9385C18.6979 33.624 19.279 33.4668 19.9307 33.4668C20.9378 33.4668 21.7513 33.8154 22.3711 34.5127C22.9954 35.21 23.3076 36.1374 23.3076 37.2949V37.3838C23.3076 38.1038 23.1686 38.751 22.8906 39.3252C22.6172 39.8949 22.223 40.3392 21.708 40.6582C21.1976 40.9772 20.6097 41.1367 19.9443 41.1367C18.9417 41.1367 18.1283 40.7881 17.5039 40.0908C16.8841 39.3936 16.5742 38.4707 16.5742 37.3223V37.2334ZM17.8457 37.3838C17.8457 38.2041 18.0348 38.8626 18.4131 39.3594C18.7959 39.8561 19.3063 40.1045 19.9443 40.1045C20.5869 40.1045 21.0973 39.8538 21.4756 39.3525C21.8538 38.8467 22.043 38.1403 22.043 37.2334C22.043 36.4222 21.8493 35.766 21.4619 35.2646C21.0791 34.7588 20.5687 34.5059 19.9307 34.5059C19.3063 34.5059 18.8027 34.7542 18.4199 35.251C18.0371 35.7477 17.8457 36.4587 17.8457 37.3838ZM25.3174 41V34.5811H24.1484V33.6035H25.3174V32.9746C25.3174 32.1497 25.5521 31.5072 26.0215 31.0469C26.4954 30.5866 27.1631 30.3564 28.0244 30.3564C28.5348 30.3564 29.1797 30.4954 29.959 30.7734L29.7471 31.8398C29.1774 31.612 28.6351 31.498 28.1201 31.498C27.5778 31.498 27.1859 31.6211 26.9443 31.8672C26.7074 32.1087 26.5889 32.4733 26.5889 32.9609V33.6035H28.0996V34.5811H26.5889V41H25.3174ZM30.5879 41H29.3164V33.6035H30.5879V41ZM34.0195 41H32.7549V30.5H34.0195V41ZM39.1191 41.1367C38.1165 41.1367 37.3008 40.8086 36.6719 40.1523C36.043 39.4915 35.7285 38.6097 35.7285 37.5068V37.2744C35.7285 36.5407 35.8675 35.8867 36.1455 35.3125C36.4281 34.7337 36.82 34.2826 37.3213 33.959C37.8271 33.6309 38.374 33.4668 38.9619 33.4668C39.9235 33.4668 40.6709 33.7835 41.2041 34.417C41.7373 35.0505 42.0039 35.9574 42.0039 37.1377V37.6641H36.9932C37.0114 38.3932 37.2233 38.9834 37.6289 39.4346C38.0391 39.8812 38.5586 40.1045 39.1875 40.1045C39.6341 40.1045 40.0124 40.0133 40.3223 39.8311C40.6322 39.6488 40.9033 39.4072 41.1357 39.1064L41.9082 39.708C41.2884 40.6605 40.3587 41.1367 39.1191 41.1367ZM38.9619 34.5059C38.4515 34.5059 38.0231 34.6927 37.6768 35.0664C37.3304 35.4355 37.1162 35.9551 37.0342 36.625H40.7393V36.5293C40.7028 35.8867 40.5296 35.39 40.2197 35.0391C39.9098 34.6836 39.4906 34.5059 38.9619 34.5059Z" fill="white"/>
</g>
<defs>
<filter id="filter0_d_2_723" x="0.44043" y="0" width="45.5635" height="51.8438" filterUnits="userSpaceOnUse" color-interpolation-filters="sRGB">
<feFlood flood-opacity="0" result="BackgroundImageFix"/>
<feColorMatrix in="SourceAlpha" type="matrix" values="0 0 0 0 0 0 0 0 0 0 0 0 0 0 0 0 0 0 127 0" result="hardAlpha"/>
<feOffset dy="4"/>
<feGaussianBlur stdDeviation="2"/>
<feComposite in2="hardAlpha" operator="out"/>
<feColorMatrix type="matrix" values="0 0 0 0 0 0 0 0 0 0 0 0 0 0 0 0 0 0 0.25 0"/>
<feBlend mode="normal" in2="BackgroundImageFix" result="effect1_dropShadow_2_723"/>
<feBlend mode="normal" in="SourceGraphic" in2="effect1_dropShadow_2_723" result="shape"/>
</filter>
</defs>
</svg>
