<svg width="32" height="34" viewBox="0 0 32 34" fill="none" xmlns="http://www.w3.org/2000/svg">
<path d="M31.4334 33.1532L28.8929 9.48443C28.8506 9.10336 28.5119 8.80697 28.1308 8.80697H23.4309V7.36737C23.4309 3.30261 20.1283 0 16.0635 0C11.9988 0 8.69616 3.30261 8.69616 7.36737V8.80697H3.86926C3.48819 8.80697 3.14946 9.10336 3.10712 9.48443L0.566648 33.1532C0.524307 33.3649 0.608989 33.5766 0.736013 33.7459C0.863036 33.9153 1.07474 34 1.28645 34H30.7136C30.9253 34 31.137 33.9153 31.264 33.7459C31.3911 33.5766 31.4757 33.3649 31.4334 33.1532ZM22.6688 13.0834C23.0498 13.0834 23.3462 13.3798 23.3462 13.7609C23.3462 14.142 23.0498 14.4384 22.6688 14.4384C22.2877 14.4384 21.9913 14.142 21.9913 13.7609C21.9913 13.3798 22.2877 13.0834 22.6688 13.0834ZM10.2204 7.36737C10.2204 4.14944 12.8456 1.52428 16.0635 1.52428C19.2815 1.52428 21.9066 4.14944 21.9066 7.36737V8.80697H10.2204V7.36737ZM9.4583 13.0834C9.83937 13.0834 10.1358 13.3798 10.1358 13.7609C10.1358 14.142 9.83937 14.4384 9.4583 14.4384C9.07723 14.4384 8.78084 14.142 8.78084 13.7609C8.78084 13.3798 9.07723 13.0834 9.4583 13.0834ZM2.17561 32.4334L4.54672 10.2889H8.69616V11.6862C7.84934 11.9826 7.25656 12.787 7.25656 13.7186C7.25656 14.9041 8.23041 15.878 9.41596 15.878C10.6015 15.878 11.5754 14.9041 11.5754 13.7186C11.5754 12.787 10.9826 11.9826 10.1358 11.6862V10.2889H21.8219V11.6862C20.9751 11.9826 20.3823 12.787 20.3823 13.7186C20.3823 14.9041 21.3562 15.878 22.5417 15.878C23.7273 15.878 24.7011 14.9041 24.7011 13.7186C24.7011 12.787 24.1084 11.9826 23.2615 11.6862V10.2889H27.5803L29.9514 32.4334H2.17561Z" fill="white"/>
</svg>
