<svg width="49" height="43" viewBox="0 0 49 43" fill="none" xmlns="http://www.w3.org/2000/svg">
<g clip-path="url(#clip0_2_715)">
<path fill-rule="evenodd" clip-rule="evenodd" d="M30.3055 1.5H16.7136V3.0465H11.9877V10.3005C11.9877 13.104 15.1781 15.411 18.3088 15.651C19.3366 16.731 21.1443 17.5155 22.7533 17.85V19.746C21.2147 20.2095 18.4663 21.2985 18.3088 22.485H28.8679C28.7088 21.2985 25.6806 20.208 24.1389 19.746V17.85C25.754 17.5155 27.6428 16.731 28.6721 15.651C31.8013 15.411 34.8509 13.104 34.8509 10.3005V3.0465H30.3055V1.5ZM13.4391 4.4205H16.6035V10.6695C16.6035 11.9025 16.9277 13.0755 17.4982 14.1315C15.1307 13.392 13.4391 11.487 13.4391 9.258V4.4205ZM25.8335 12.042L23.4721 10.7655L21.1076 12.042L21.5588 9.342L19.647 7.431L22.2883 7.0365L23.4721 4.5825L24.6528 7.0365L27.2941 7.431L25.3823 9.342L25.8335 12.042ZM29.3435 14.331C29.917 13.227 30.2459 12.006 30.2459 10.7145V4.461H33.4179V9.24C33.4179 11.5695 31.7187 13.5585 29.3435 14.331Z" fill="white"/>
</g>
<path d="M7.50586 38.2568L8.92773 32.6035H10.1924L8.03906 40H7.01367L5.21582 34.3945L3.46582 40H2.44043L0.293945 32.6035H1.55176L3.00781 38.1406L4.73047 32.6035H5.74902L7.50586 38.2568ZM12.8584 40H11.5938V32.6035H12.8584V40ZM11.4912 30.6416C11.4912 30.4365 11.5527 30.2633 11.6758 30.1221C11.8034 29.9808 11.9902 29.9102 12.2363 29.9102C12.4824 29.9102 12.6693 29.9808 12.7969 30.1221C12.9245 30.2633 12.9883 30.4365 12.9883 30.6416C12.9883 30.8467 12.9245 31.0176 12.7969 31.1543C12.6693 31.291 12.4824 31.3594 12.2363 31.3594C11.9902 31.3594 11.8034 31.291 11.6758 31.1543C11.5527 31.0176 11.4912 30.8467 11.4912 30.6416ZM16.085 32.6035L16.126 33.5332C16.6911 32.8223 17.4294 32.4668 18.3408 32.4668C19.904 32.4668 20.6924 33.3486 20.7061 35.1123V40H19.4414V35.1055C19.4368 34.5723 19.3138 34.1781 19.0723 33.9229C18.8353 33.6676 18.4639 33.54 17.958 33.54C17.5479 33.54 17.1878 33.6494 16.8779 33.8682C16.568 34.0869 16.3265 34.374 16.1533 34.7295V40H14.8887V32.6035H16.085ZM23.8096 32.6035L23.8506 33.5332C24.4157 32.8223 25.154 32.4668 26.0654 32.4668C27.6286 32.4668 28.417 33.3486 28.4307 35.1123V40H27.166V35.1055C27.1615 34.5723 27.0384 34.1781 26.7969 33.9229C26.5599 33.6676 26.1885 33.54 25.6826 33.54C25.2725 33.54 24.9124 33.6494 24.6025 33.8682C24.2926 34.0869 24.0511 34.374 23.8779 34.7295V40H22.6133V32.6035H23.8096ZM33.4072 40.1367C32.4046 40.1367 31.5889 39.8086 30.96 39.1523C30.3311 38.4915 30.0166 37.6097 30.0166 36.5068V36.2744C30.0166 35.5407 30.1556 34.8867 30.4336 34.3125C30.7161 33.7337 31.1081 33.2826 31.6094 32.959C32.1152 32.6309 32.6621 32.4668 33.25 32.4668C34.2116 32.4668 34.959 32.7835 35.4922 33.417C36.0254 34.0505 36.292 34.9574 36.292 36.1377V36.6641H31.2812C31.2995 37.3932 31.5114 37.9834 31.917 38.4346C32.3271 38.8812 32.8467 39.1045 33.4756 39.1045C33.9222 39.1045 34.3005 39.0133 34.6104 38.8311C34.9202 38.6488 35.1914 38.4072 35.4238 38.1064L36.1963 38.708C35.5765 39.6605 34.6468 40.1367 33.4072 40.1367ZM33.25 33.5059C32.7396 33.5059 32.3112 33.6927 31.9648 34.0664C31.6185 34.4355 31.4043 34.9551 31.3223 35.625H35.0273V35.5293C34.9909 34.8867 34.8177 34.39 34.5078 34.0391C34.1979 33.6836 33.7786 33.5059 33.25 33.5059ZM41.3369 33.7383C41.1455 33.7064 40.9382 33.6904 40.7148 33.6904C39.8854 33.6904 39.3226 34.0436 39.0264 34.75V40H37.7617V32.6035H38.9922L39.0127 33.458C39.4274 32.7972 40.0153 32.4668 40.7764 32.4668C41.0225 32.4668 41.2093 32.4987 41.3369 32.5625V33.7383ZM46.8125 38.0381C46.8125 37.6963 46.6826 37.432 46.4229 37.2451C46.1676 37.0537 45.7188 36.8896 45.0762 36.7529C44.4382 36.6162 43.93 36.4521 43.5518 36.2607C43.1781 36.0693 42.9001 35.8415 42.7178 35.5771C42.54 35.3128 42.4512 34.9984 42.4512 34.6338C42.4512 34.0277 42.7064 33.515 43.2168 33.0957C43.7318 32.6764 44.388 32.4668 45.1855 32.4668C46.0241 32.4668 46.7031 32.6833 47.2227 33.1162C47.7467 33.5492 48.0088 34.1029 48.0088 34.7773H46.7373C46.7373 34.431 46.5892 34.1325 46.293 33.8818C46.0013 33.6312 45.6322 33.5059 45.1855 33.5059C44.7253 33.5059 44.3652 33.6061 44.1055 33.8066C43.8457 34.0072 43.7158 34.2692 43.7158 34.5928C43.7158 34.8981 43.8366 35.1283 44.0781 35.2832C44.3197 35.4382 44.7549 35.5863 45.3838 35.7275C46.0173 35.8688 46.5299 36.0374 46.9219 36.2334C47.3138 36.4294 47.6032 36.6663 47.79 36.9443C47.9814 37.2178 48.0771 37.5527 48.0771 37.9492C48.0771 38.61 47.8128 39.141 47.2842 39.542C46.7555 39.9385 46.0697 40.1367 45.2266 40.1367C44.6341 40.1367 44.11 40.0319 43.6543 39.8223C43.1986 39.6126 42.8408 39.321 42.5811 38.9473C42.3258 38.569 42.1982 38.1611 42.1982 37.7236H43.4629C43.4857 38.1475 43.6543 38.4847 43.9688 38.7354C44.2878 38.9814 44.707 39.1045 45.2266 39.1045C45.7051 39.1045 46.0879 39.0088 46.375 38.8174C46.6667 38.6214 46.8125 38.3617 46.8125 38.0381Z" fill="white"/>
<defs>
<clipPath id="clip0_2_715">
<rect width="26" height="24" fill="white" transform="translate(12)"/>
</clipPath>
</defs>
</svg>
